<svg width="213" height="391" viewBox="0 0 213 391" fill="none" xmlns="http://www.w3.org/2000/svg">
<path d="M212.614 171.41V135.78C212.614 100.684 209.934 74.8743 204.573 58.351C199.213 41.8277 187.919 27.9927 170.691 16.8462C153.54 5.6154 131.692 0 105.147 0C85.6513 0 68.3844 3.5728 53.3468 10.7184C38.3092 17.864 26.551 27.6979 18.0722 40.2203C10.0104 51.6016 4.73606 65.0286 2.74466 79.2403C1.01797 92.7874 0.141743 113.066 0.115971 140.076L0 249.724C0 286.49 2.74466 314.034 8.23397 332.354C13.7233 350.674 25.0305 365.022 42.1556 375.396C59.2291 385.757 80.9416 390.958 107.293 391C132.639 391 153.965 384.914 171.27 372.743C188.576 360.572 199.78 346.351 204.883 330.08C209.947 313.852 212.524 286.308 212.614 247.449V232.835H123.065V327.595H89.6652V63.5101H122.988V171.305L212.614 171.41Z" fill="white"/>
</svg>
