<svg width="168" height="313" viewBox="0 0 168 313" fill="none" xmlns="http://www.w3.org/2000/svg">
<path d="M156.302 166.143C151.147 159.475 141.2 154.14 126.458 150.139C142.81 148.469 153.763 143.457 159.317 135.104C164.871 126.751 167.654 110.467 167.667 86.2503C167.667 59.6474 163.73 40.2813 155.857 28.152C148.761 16.5393 137.806 8.37893 125.299 5.38861C112.812 2.44053 88.9287 0.966492 53.6476 0.966492H0.706665V313H75.4888V172.313C85.7974 172.313 92.1565 174.3 94.5662 178.273C96.9758 182.245 98.1935 192.592 98.2193 209.312V313H167.667V230.706C167.667 205.521 167.022 190.135 165.734 184.548C163.893 177.722 160.669 171.433 156.302 166.143ZM102.645 126.871H69.323V51.2102H102.645V126.871Z" fill="white"/>
</svg>
