<svg width="38" height="38" viewBox="0 0 38 38" fill="none" xmlns="http://www.w3.org/2000/svg">
<path d="M19 10.6667C16.7899 10.6667 14.6703 11.5447 13.1075 13.1075C11.5447 14.6703 10.6667 16.7899 10.6667 19C10.6667 21.2102 11.5447 23.3298 13.1075 24.8926C14.6703 26.4554 16.7899 27.3334 19 27.3334C21.2102 27.3334 23.3298 26.4554 24.8926 24.8926C26.4554 23.3298 27.3334 21.2102 27.3334 19C27.3334 16.7899 26.4554 14.6703 24.8926 13.1075C23.3298 11.5447 21.2102 10.6667 19 10.6667Z" fill="#383838"/>
<path fill-rule="evenodd" clip-rule="evenodd" d="M19 0.666687C19.442 0.666687 19.866 0.842282 20.1785 1.15484C20.4911 1.4674 20.6667 1.89133 20.6667 2.33335V4.00002C20.6667 4.44205 20.4911 4.86597 20.1785 5.17853C19.866 5.49109 19.442 5.66669 19 5.66669C18.558 5.66669 18.1341 5.49109 17.8215 5.17853C17.5089 4.86597 17.3334 4.44205 17.3334 4.00002V2.33335C17.3334 1.89133 17.5089 1.4674 17.8215 1.15484C18.1341 0.842282 18.558 0.666687 19 0.666687ZM4.48835 4.48835C4.8009 4.1759 5.22475 4.00038 5.66669 4.00038C6.10863 4.00038 6.53247 4.1759 6.84502 4.48835L9.34502 6.98835C9.64862 7.30269 9.81661 7.72369 9.81281 8.16069C9.80901 8.59768 9.63373 9.0157 9.32472 9.32472C9.0157 9.63373 8.59768 9.80901 8.16069 9.81281C7.72369 9.81661 7.30269 9.64862 6.98835 9.34502L4.48835 6.84502C4.1759 6.53247 4.00038 6.10863 4.00038 5.66669C4.00038 5.22475 4.1759 4.8009 4.48835 4.48835ZM33.5117 4.48835C33.8241 4.8009 33.9997 5.22475 33.9997 5.66669C33.9997 6.10863 33.8241 6.53247 33.5117 6.84502L31.0117 9.34502C30.8579 9.5042 30.674 9.63117 30.4707 9.71852C30.2674 9.80587 30.0487 9.85185 29.8274 9.85377C29.6061 9.85569 29.3866 9.81352 29.1818 9.72972C28.9769 9.64592 28.7908 9.52217 28.6344 9.36568C28.4779 9.20919 28.3541 9.0231 28.2703 8.81828C28.1865 8.61345 28.1443 8.39398 28.1463 8.17268C28.1482 7.95139 28.1942 7.73269 28.2815 7.52935C28.3689 7.32601 28.4958 7.1421 28.655 6.98835L31.155 4.48835C31.4676 4.1759 31.8914 4.00038 32.3334 4.00038C32.7753 4.00038 33.1991 4.1759 33.5117 4.48835ZM0.666687 19C0.666687 18.558 0.842282 18.1341 1.15484 17.8215C1.4674 17.5089 1.89133 17.3334 2.33335 17.3334H4.00002C4.44205 17.3334 4.86597 17.5089 5.17853 17.8215C5.49109 18.1341 5.66669 18.558 5.66669 19C5.66669 19.442 5.49109 19.866 5.17853 20.1785C4.86597 20.4911 4.44205 20.6667 4.00002 20.6667H2.33335C1.89133 20.6667 1.4674 20.4911 1.15484 20.1785C0.842282 19.866 0.666687 19.442 0.666687 19ZM32.3334 19C32.3334 18.558 32.5089 18.1341 32.8215 17.8215C33.1341 17.5089 33.558 17.3334 34 17.3334H35.6667C36.1087 17.3334 36.5326 17.5089 36.8452 17.8215C37.1578 18.1341 37.3334 18.558 37.3334 19C37.3334 19.442 37.1578 19.866 36.8452 20.1785C36.5326 20.4911 36.1087 20.6667 35.6667 20.6667H34C33.558 20.6667 33.1341 20.4911 32.8215 20.1785C32.5089 19.866 32.3334 19.442 32.3334 19ZM9.34502 28.655C9.65747 28.9676 9.833 29.3914 9.833 29.8334C9.833 30.2753 9.65747 30.6991 9.34502 31.0117L6.84502 33.5117C6.53068 33.8153 6.10968 33.9833 5.67268 33.9795C5.23569 33.9757 4.81767 33.8004 4.50866 33.4914C4.19964 33.1824 4.02436 32.7643 4.02056 32.3274C4.01677 31.8904 4.18476 31.4694 4.48835 31.155L6.98835 28.655C7.3009 28.3426 7.72475 28.167 8.16669 28.167C8.60863 28.167 9.03247 28.3426 9.34502 28.655ZM28.655 28.655C28.9676 28.3426 29.3914 28.167 29.8334 28.167C30.2753 28.167 30.6991 28.3426 31.0117 28.655L33.5117 31.155C33.8153 31.4694 33.9833 31.8904 33.9795 32.3274C33.9757 32.7643 33.8004 33.1824 33.4914 33.4914C33.1824 33.8004 32.7643 33.9757 32.3274 33.9795C31.8904 33.9833 31.4694 33.8153 31.155 33.5117L28.655 31.0117C28.3426 30.6991 28.167 30.2753 28.167 29.8334C28.167 29.3914 28.3426 28.9676 28.655 28.655ZM19 32.3334C19.442 32.3334 19.866 32.5089 20.1785 32.8215C20.4911 33.1341 20.6667 33.558 20.6667 34V35.6667C20.6667 36.1087 20.4911 36.5326 20.1785 36.8452C19.866 37.1578 19.442 37.3334 19 37.3334C18.558 37.3334 18.1341 37.1578 17.8215 36.8452C17.5089 36.5326 17.3334 36.1087 17.3334 35.6667V34C17.3334 33.558 17.5089 33.1341 17.8215 32.8215C18.1341 32.5089 18.558 32.3334 19 32.3334Z" fill="#383838"/>
</svg>
